<svg width="35" height="35" viewBox="0 0 35 35" fill="none" xmlns="http://www.w3.org/2000/svg">
<path d="M17.5 32.0834C17.1597 32.0834 16.868 31.9862 16.625 31.7917C16.3819 31.5973 16.1996 31.3421 16.0781 31.0261C15.6163 29.665 15.0329 28.389 14.3281 27.198C13.6475 26.007 12.6875 24.6095 11.4479 23.0053C10.2083 21.4011 9.19961 19.8699 8.42183 18.4115C7.66836 16.9532 7.29163 15.1911 7.29163 13.1251C7.29163 10.2813 8.276 7.87508 10.2448 5.90633C12.2378 3.91328 14.6562 2.91675 17.5 2.91675C20.3437 2.91675 22.75 3.91328 24.7187 5.90633C26.7118 7.87508 27.7083 10.2813 27.7083 13.1251C27.7083 15.3369 27.2829 17.1841 26.4323 18.6667C25.6059 20.1251 24.6458 21.5713 23.552 23.0053C22.2395 24.7553 21.243 26.2136 20.5625 27.3803C19.9062 28.5226 19.3593 29.7379 18.9218 31.0261C18.8003 31.3664 18.6059 31.6338 18.3385 31.8282C18.0954 31.9983 17.8159 32.0834 17.5 32.0834ZM17.5 16.7709C18.5208 16.7709 19.3836 16.4185 20.0885 15.7136C20.7934 15.0088 21.1458 14.1459 21.1458 13.1251C21.1458 12.1042 20.7934 11.2414 20.0885 10.5365C19.3836 9.83168 18.5208 9.47925 17.5 9.47925C16.4791 9.47925 15.6163 9.83168 14.9114 10.5365C14.2066 11.2414 13.8541 12.1042 13.8541 13.1251C13.8541 14.1459 14.2066 15.0088 14.9114 15.7136C15.6163 16.4185 16.4791 16.7709 17.5 16.7709Z" fill="#5999BB"/>
</svg>
