<svg width="35" height="35" viewBox="0 0 35 35" fill="none" xmlns="http://www.w3.org/2000/svg">
<path d="M5.83329 29.1666C5.03121 29.1666 4.3385 28.8871 3.75517 28.328C3.19614 27.7447 2.91663 27.052 2.91663 26.2499V8.74992C2.91663 7.94784 3.19614 7.26728 3.75517 6.70825C4.3385 6.12492 5.03121 5.83325 5.83329 5.83325H29.1666C29.9687 5.83325 30.6493 6.12492 31.2083 6.70825C31.7916 7.26728 32.0833 7.94784 32.0833 8.74992V26.2499C32.0833 27.052 31.7916 27.7447 31.2083 28.328C30.6493 28.8871 29.9687 29.1666 29.1666 29.1666H5.83329ZM17.5 18.9583L29.1666 11.6666V8.74992L17.5 16.0416L5.83329 8.74992V11.6666L17.5 18.9583Z" fill="#5999BB"/>
</svg>
