<svg width="35" height="35" viewBox="0 0 35 35" fill="none" xmlns="http://www.w3.org/2000/svg">
<path d="M8.75004 33.5416C7.94796 33.5416 7.26133 33.256 6.69014 32.6848C6.11896 32.1136 5.83337 31.427 5.83337 30.6249V4.37492C5.83337 3.57284 6.11896 2.8862 6.69014 2.31502C7.26133 1.74384 7.94796 1.45825 8.75004 1.45825H23.3334C24.1355 1.45825 24.8221 1.74384 25.3933 2.31502C25.9645 2.8862 26.25 3.57284 26.25 4.37492V10.2083H23.3334V8.74992H8.75004V26.2499H23.3334V24.7916H26.25V30.6249C26.25 31.427 25.9645 32.1136 25.3933 32.6848C24.8221 33.256 24.1355 33.5416 23.3334 33.5416H8.75004ZM8.75004 29.1666V30.6249H23.3334V29.1666H8.75004ZM21.8021 23.3333L15.6042 17.1353L17.6459 15.0937L21.8021 19.2499L30.0417 11.0103L32.0834 13.052L21.8021 23.3333ZM8.75004 5.83325H23.3334V4.37492H8.75004V5.83325Z" fill="#5999BB"/>
</svg>
